<svg width="973" height="99" viewBox="0 0 973 99" fill="none" xmlns="http://www.w3.org/2000/svg">
<path fill-rule="evenodd" clip-rule="evenodd" d="M41.5947 5.03962C25.2383 11.6501 12.1778 24.4873 5.28642 40.7273C2.71156 46.7951 1.07672 53.1523 0.3837 59.5886C0.349193 59.5813 0.317935 59.5747 0.289952 59.5687C0.230678 59.556 0.186106 59.5462 0.156506 59.5397L0.123367 59.5323L0.115284 59.5304L0.113373 59.53C0.113012 59.5299 0.112889 59.5299 0.0560292 59.7773C-0.000830512 60.0248 -0.000477611 60.0248 0.000113228 60.025L0.00248488 60.0255L0.0114954 60.0276L0.0465029 60.0354C0.0773569 60.0422 0.123197 60.0523 0.183753 60.0652C0.225778 60.0742 0.27489 60.0846 0.331 60.0963C-0.705718 70.472 0.702209 81.039 4.56236 90.9185C4.65599 91.1581 4.75107 91.3974 4.8476 91.6362L5.31837 91.446C5.22259 91.209 5.12823 90.9715 5.03531 90.7337C1.21084 80.9455 -0.188011 70.4773 0.831269 60.1969C1.30058 60.2883 1.96308 60.4101 2.8051 60.5469C4.62487 60.8426 7.28331 61.2087 10.6425 61.4914C12.1523 61.6184 13.8038 61.7285 15.5844 61.8079C15.9538 67.3621 17.0006 73.328 19.1403 79.3495L19.1416 79.3532L19.1431 79.3569C19.2307 79.5812 19.3198 79.8052 19.4101 80.0288L19.8809 79.8385C19.7918 79.618 19.704 79.3971 19.6175 79.1758C17.5034 73.2252 16.4647 67.3267 16.0948 61.8296C22.1499 62.0756 29.6445 61.9596 38.1056 60.9536C38.2511 60.9363 38.3968 60.9187 38.5428 60.9009C39.2983 64.1348 40.1784 67.5483 41.1954 71.1514L41.6841 71.0134C40.6745 67.4365 39.8004 64.048 39.0496 60.8381C47.1209 59.8234 56.0418 57.9947 65.4112 54.9052L67.0817 59.6562L67.5608 59.4878L65.8932 54.7453C73.8184 52.0996 82.0586 48.5493 90.3723 43.8253C91.3989 45.8078 92.4344 47.8867 93.4774 50.0664L93.9354 49.8473C92.887 47.6563 91.8461 45.5665 90.8137 43.5734C96.0939 40.5477 101.402 37.0468 106.676 33.002C108.47 35.7639 110.141 38.7623 111.6 42.0002C111.692 42.2196 111.782 42.4397 111.871 42.6604L112.342 42.4701C112.252 42.2466 112.16 42.0238 112.068 41.8015L112.066 41.7982L112.065 41.7948C110.587 38.5173 108.895 35.4838 107.08 32.6913C110.411 30.1181 113.728 27.327 117.016 24.3007L116.672 23.9272C113.406 26.9338 110.11 29.7075 106.801 32.2653C103.512 27.2865 99.8391 23.0867 96.3092 19.6473C98.9222 17.4938 101.437 15.1534 103.827 12.6104L103.457 12.2627C101.069 14.8037 98.555 17.1414 95.942 19.2918C94.7519 18.1466 93.5803 17.0882 92.4476 16.116C89.2248 13.3498 86.3155 11.2797 84.1892 9.88911C86.2469 8.41371 88.2679 6.82348 90.2385 5.1097C90.9309 5.37634 91.62 5.65506 92.3053 5.94587C108.329 12.7454 121.014 25.5966 127.607 41.6973L128.077 41.5049C121.433 25.2804 108.65 12.3302 92.5036 5.47845C86.4041 2.89014 80.0123 1.25169 73.5415 0.564941L73.5323 0.552479L73.5187 0.562526C65.2696 -0.310091 56.8926 0.363919 48.83 2.58837C47.5421 2.88716 46.2756 3.27209 45.0442 3.75525C43.8858 4.15046 42.7355 4.57858 41.5947 5.03962ZM65.7248 54.2662C73.6282 51.6283 81.8464 48.0874 90.1381 43.3743C87.3296 37.9839 84.5877 33.3135 81.9355 29.2684C74.806 33.1216 67.3685 35.9907 60.0463 38.117L65.7248 54.2662ZM59.8777 37.6373C67.1663 35.5224 74.5652 32.6703 81.6551 28.8427C78.4686 24.0239 75.4134 20.1073 72.53 16.9273C66.679 19.876 60.7415 22.091 54.9941 23.7487L59.8777 37.6373ZM54.5051 23.8886L59.3889 37.7781C52.9954 39.6057 46.6941 40.8693 40.7685 41.7304C39.0724 41.9768 37.4073 42.1902 35.78 42.3744C35.1522 36.6774 35.0348 31.8095 35.2798 27.6516C36.6503 27.4942 38.0622 27.3098 39.5097 27.0945C44.2036 26.3961 49.272 25.3722 54.5051 23.8886ZM54.8254 23.2689C60.5136 21.6299 66.3865 19.4435 72.1744 16.5378C68.5856 12.6356 65.2683 9.87532 62.3019 7.93275C58.4799 9.79635 54.6705 11.2683 51.0144 12.4306L54.8254 23.2689ZM50.5298 12.5831L54.3363 23.4087C49.1389 24.8805 44.1028 25.8978 39.435 26.5922C38.0251 26.802 36.6489 26.9823 35.3123 27.1368C35.6275 22.4369 36.4113 18.6639 37.4406 15.638C38.2973 15.5012 39.1819 15.348 40.0912 15.1765C43.3093 14.5697 46.8376 13.7337 50.5298 12.5831ZM50.8459 11.9513C54.397 10.8231 58.0924 9.40153 61.802 7.61092C61.4064 7.36071 61.0174 7.12511 60.635 6.90332C56.4328 4.46579 53.0356 3.69381 50.6995 3.52677C49.5307 3.44321 48.6257 3.51091 48.0163 3.59832C47.9813 3.60334 47.9472 3.60843 47.9142 3.61356L50.8459 11.9513ZM47.4094 3.70865L50.3613 12.1038C46.6973 13.2447 43.1944 14.0746 39.9972 14.6775C39.1882 14.8301 38.3989 14.9681 37.6315 15.0929C37.8092 14.6001 37.9934 14.1281 38.1831 13.676C40.0693 9.18056 42.4995 6.64723 44.445 5.23864C45.4188 4.53366 46.2734 4.10879 46.8813 3.8608C46.9586 3.82926 47.0319 3.80059 47.101 3.77456C47.1056 3.78854 47.1056 3.78856 47.1055 3.78858L47.1072 3.78801L47.1162 3.78515C47.1247 3.78248 47.1383 3.77832 47.1568 3.77292C47.1939 3.76214 47.251 3.74643 47.3276 3.72784C47.3527 3.72173 47.38 3.71531 47.4094 3.70865ZM59.5576 38.2579L65.2427 54.4261C55.8904 57.5093 46.987 59.3316 38.9339 60.3409C37.4213 53.8003 36.4239 48.0079 35.8366 42.879C37.4693 42.6942 39.1398 42.4801 40.8415 42.2328C46.7922 41.3682 53.1267 40.0978 59.5576 38.2579ZM106.397 32.5759C101.138 36.6115 95.8446 40.1041 90.5794 43.1224C87.7755 37.7421 85.0359 33.0739 82.383 29.025C87.0712 26.4593 91.6218 23.4644 95.9138 19.9711C99.4421 23.404 103.114 27.5996 106.397 32.5759ZM95.5462 19.6156C91.2826 23.0805 86.7616 26.0524 82.103 28.5994C78.9295 23.7969 75.882 19.8801 72.9994 16.6891C76.6398 14.8284 80.2438 12.6814 83.7448 10.2055L83.8028 10.2433C85.9226 11.6239 88.8581 13.7043 92.1169 16.5013C93.2291 17.4559 94.3786 18.4938 95.5462 19.6156ZM83.2843 9.90897C79.8173 12.3481 76.2491 14.4645 72.6451 16.2997C69.0937 12.4232 65.7974 9.64869 62.8299 7.67287C65.0588 6.56521 67.2898 5.32314 69.4951 3.93043C71.8412 4.5269 73.9485 5.21519 75.6853 5.8811C78.0516 6.78838 79.7038 7.6441 80.3443 8.15849L80.3637 8.17407L80.3858 8.18559L80.5033 7.96054C80.3858 8.18559 80.3857 8.18555 80.3858 8.18559L80.389 8.18729L80.3998 8.193C80.4095 8.19814 80.4243 8.20596 80.4439 8.21646C80.4831 8.23745 80.5418 8.26915 80.619 8.3116C80.7734 8.39651 81.002 8.52439 81.2971 8.69552C81.7876 8.98006 82.4618 9.38414 83.2843 9.90897ZM68.81 3.76058C66.6668 5.09376 64.5006 6.28527 62.3371 7.3501C61.8452 7.03321 61.3626 6.73835 60.8898 6.46409C56.6227 3.98893 53.151 3.19299 50.7357 3.02029C50.2417 2.98497 49.7922 2.97574 49.3894 2.98349C55.2276 1.72424 61.5016 2.21702 66.9019 3.33292C67.5516 3.46719 68.1884 3.61041 68.81 3.76058ZM38.4272 60.4035C36.9178 53.8688 35.9203 48.0739 35.332 42.9353C28.3352 43.7052 22.0531 43.9386 17.0203 43.94C16.8561 44.9249 16.7022 45.9614 16.5646 47.044C16.0338 51.2205 15.7474 56.0813 16.0623 61.3201C22.1032 61.568 29.5897 61.4547 38.0457 60.4494C38.1726 60.4343 38.2998 60.419 38.4272 60.4035ZM15.5523 61.2981C15.2402 56.0413 15.5288 51.1666 16.0609 46.9799C16.1954 45.9209 16.3456 44.9057 16.5057 43.9393C16.0236 43.938 15.5537 43.9345 15.0962 43.9292C11.8382 43.8914 9.21533 43.7613 7.40622 43.6405C6.50166 43.5801 5.80049 43.522 5.32506 43.479C5.08734 43.4575 4.90604 43.4398 4.78397 43.4274L4.75313 43.4243C2.76472 48.6977 1.47447 54.1645 0.883531 59.6897C1.34998 59.7811 2.02265 59.9054 2.88654 60.0457C4.69459 60.3395 7.34002 60.704 10.6851 60.9854C12.1731 61.1106 13.7996 61.2193 15.5523 61.2981ZM5.3708 42.9733C5.19612 42.9575 5.05238 42.9438 4.94069 42.9328C5.20035 42.2604 5.4714 41.5913 5.75385 40.9257C7.67689 36.3939 10.084 32.1292 12.9118 28.1938C12.9962 28.2016 13.1085 28.2117 13.2478 28.2234C13.5905 28.252 14.0963 28.2903 14.751 28.3291C16.0604 28.4067 17.9654 28.4861 20.3507 28.494C20.5214 28.4946 20.6946 28.4948 20.8702 28.4946C19.9926 30.314 19.4648 31.7427 19.3331 32.5173L19.3165 32.5624C19.3001 32.6074 19.276 32.674 19.2451 32.7617C19.1832 32.9372 19.0938 33.1968 18.9832 33.5353C18.7621 34.2122 18.4561 35.2045 18.1156 36.4691C17.6291 38.2757 17.072 40.6386 16.5913 43.4318C16.0813 43.4306 15.5847 43.427 15.1021 43.4214C11.8544 43.3838 9.24086 43.2541 7.44005 43.1338C6.53965 43.0737 5.84247 43.016 5.3708 42.9733ZM35.2753 42.4307C28.3405 43.1938 22.1094 43.4281 17.1066 43.4322C17.5809 40.6938 18.1279 38.3762 18.6059 36.6011C18.9439 35.3459 19.2473 34.3621 19.4659 33.693C19.5752 33.3584 19.6633 33.1025 19.7239 32.9307C19.7543 32.8447 19.7777 32.7798 19.7935 32.7366C19.8014 32.715 19.8074 32.6988 19.8113 32.6881L19.8158 32.6762L19.8168 32.6734C19.8168 32.6733 19.8171 32.6727 19.7988 32.6658L19.8168 32.6734L19.8261 32.6488L19.8302 32.6236C19.9474 31.8993 20.4883 30.4281 21.4357 28.4926C25.0442 28.4715 29.6003 28.282 34.7678 27.7094C34.5276 31.8807 34.6492 36.7494 35.2753 42.4307ZM89.6995 4.90486C84.4974 2.95363 79.1082 1.68114 73.6612 1.0885C72.4789 1.95865 71.2836 2.78065 70.0799 3.55714C72.262 4.13034 74.2269 4.77814 75.8671 5.40698C78.215 6.30719 79.9235 7.1784 80.6428 7.7471L80.6559 7.75408L80.6836 7.76885C80.7244 7.79069 80.7847 7.82327 80.8636 7.86662C81.0213 7.95333 81.2533 8.08313 81.5518 8.25628C82.0825 8.56408 82.8234 9.0089 83.7313 9.59227C85.7609 8.14439 87.7547 6.58473 89.6995 4.90486ZM34.7995 27.195C35.1048 22.5418 35.8655 18.7747 36.8752 15.7266C33.9318 16.1787 31.3373 16.437 29.2311 16.5829C28.4279 17.5468 27.6709 18.5176 26.9619 19.4801C24.7892 22.4298 23.0722 25.2962 21.8641 27.6403C21.8045 27.7559 21.7462 27.8702 21.6892 27.9831C25.2618 27.9545 29.7379 27.7593 34.7995 27.195ZM21.1195 27.9863C21.2138 27.797 21.3116 27.604 21.4128 27.4076C22.6327 25.0408 24.3637 22.1513 26.553 19.179C27.1765 18.3325 27.8375 17.4789 28.5349 16.6282C28.3849 16.6374 28.2377 16.6459 28.0935 16.6539C26.6184 16.7358 25.4477 16.7602 24.6451 16.764C24.2438 16.766 23.9344 16.7628 23.725 16.7591C23.6202 16.7572 23.5405 16.7553 23.4867 16.7538C23.4598 16.753 23.4394 16.7524 23.4257 16.7519L23.41 16.7514L23.4048 16.7512C23.4046 16.7512 23.4045 16.7512 23.4054 16.726C19.6232 19.9884 16.2178 23.6742 13.2592 27.7147L13.2902 27.7173C13.6289 27.7457 14.1306 27.7837 14.7811 27.8222C16.0819 27.8993 17.9774 27.9784 20.3524 27.9863C20.6028 27.9871 20.8585 27.9871 21.1195 27.9863ZM24.6426 16.2563C24.3705 16.2576 24.1415 16.2565 23.9581 16.2545C28.8173 12.1555 34.2812 8.74755 40.2055 6.17271C35.8494 8.8182 32.0749 12.4052 28.9806 16.091C28.6637 16.1121 28.3585 16.1307 28.0654 16.1469C26.5995 16.2283 25.4374 16.2524 24.6426 16.2563ZM37.0602 15.184C34.2512 15.6235 31.7538 15.8858 29.6884 16.0408C33.6839 11.3622 38.7656 6.91393 44.718 4.4352C44.5328 4.55571 44.3422 4.68618 44.1473 4.82735C42.1259 6.29084 39.637 8.89866 37.7149 13.4796C37.4882 14.0199 37.2694 14.5876 37.0602 15.184ZM72.9063 1.01076C71.7507 1.84694 70.583 2.63742 69.4076 3.38469C68.6303 3.19008 67.8277 3.00574 67.0046 2.83565C63.1594 2.0411 58.8538 1.55534 54.5612 1.79306C60.6199 0.677131 66.7956 0.416886 72.9063 1.01076Z" fill="#1B2E59"/>
<path d="M27.4197 72.8044L23.3575 68.4884L48.4922 43.6075L68.8031 54.5246L90.8912 30.9132L86.0674 25.8355L104.601 24.5661L103.839 42.8459L98.7617 38.5298L70.3264 66.4573L48.4922 53.0013L27.4197 72.8044Z" fill="#1B2E59"/>
<path d="M27.4197 98.193V78.6438L40.8756 66.2034V98.193H27.4197Z" fill="#1B2E59"/>
<path d="M46.4611 98.193V60.364L49.2539 58.079L59.9171 64.6801V98.193H46.4611Z" fill="#1B2E59"/>
<path d="M65.5026 98.193V68.4884L70.5803 71.7889L78.9585 64.6801V98.193H65.5026Z" fill="#1B2E59"/>
<path d="M84.2902 98.193V59.0946L98.2539 45.6386V98.193H84.2902Z" fill="#1B2E59"/>
<path fill-rule="evenodd" clip-rule="evenodd" d="M950.195 0V98.0862H972.5V11.1932L950.195 0ZM919.195 86.854V0.10696H941.5V98.1932L919.195 86.854ZM209.511 9.40921C203.061 3.22843 195.089 0.138045 185.594 0.138045H149.047V98.1932H173.098V65.9768H185.594C195.089 65.9768 203.061 62.8864 209.511 56.7056C215.96 50.5248 219.185 42.6421 219.185 33.0574C219.185 23.4727 215.96 15.59 209.511 9.40921ZM192.312 40.3131C190.521 42.1942 188.281 43.1347 185.594 43.1347H173.098V23.1144H185.594C188.281 23.1144 190.521 24.055 192.312 25.9361C194.193 27.7276 195.134 30.1014 195.134 33.0574C195.134 36.0134 194.193 38.432 192.312 40.3131ZM286.34 36.6541C281.772 31.6379 275.86 29.1297 268.604 29.1297C260.184 29.1297 253.958 31.9962 249.927 37.7291V0.138045H227.623V98.1932H249.927V62.4522C249.927 58.5108 250.868 55.51 252.749 53.4497C254.72 51.2999 257.452 50.225 260.945 50.225C263.991 50.225 266.41 51.1208 268.201 52.9123C270.082 54.7038 271.023 57.3463 271.023 60.8398V98.1932H293.327V58.0181C293.327 48.7022 290.998 41.5809 286.34 36.6541ZM352.733 29.0971H375.038V96.2795H352.733V90.0987C348.165 95.4733 341.805 98.1606 333.653 98.1606C324.696 98.1606 317.171 94.8014 311.08 88.0832C305.079 81.2754 302.078 72.8104 302.078 62.6882C302.078 52.5661 305.079 44.1459 311.08 37.4277C317.171 30.6199 324.696 27.216 333.653 27.216C341.805 27.216 348.165 29.9033 352.733 35.2778V29.0971ZM328.413 73.3031C331.011 75.9904 334.415 77.334 338.625 77.334C342.835 77.334 346.239 75.9904 348.837 73.3031C351.434 70.6158 352.733 67.0775 352.733 62.6882C352.733 58.299 351.434 54.7607 348.837 52.0734C346.239 49.3861 342.835 48.0425 338.625 48.0425C334.415 48.0425 331.011 49.3861 328.413 52.0734C325.816 54.7607 324.517 58.299 324.517 62.6882C324.517 67.0775 325.816 70.6158 328.413 73.3031ZM414.094 32.821C410.331 35.2396 407.823 38.6435 406.569 43.0328V30.5368H384.265V97.7192H406.569V69.9057C406.569 63.8145 408.629 59.4253 412.75 56.738C416.96 54.0507 421.618 53.1101 426.724 53.9163V29.1932C422.066 29.1932 417.856 30.4025 414.094 32.821ZM512.239 29.1297C520.033 29.1297 526.169 31.6379 530.647 36.6541C535.216 41.5808 537.5 48.3887 537.5 57.0776V98.1932H515.061V59.6305C515.061 53.3602 512.284 50.225 506.73 50.225C503.685 50.225 501.356 51.2551 499.743 53.3154C498.221 55.2861 497.459 58.0181 497.459 61.5116V98.1932H475.155V59.6305C475.155 53.3602 472.333 50.225 466.69 50.225C463.644 50.225 461.315 51.2551 459.703 53.3154C458.18 55.2861 457.419 58.0181 457.419 61.5116V98.1932H435.114V31.0108H457.419V37.326C461.539 31.8618 467.586 29.1297 475.558 29.1297C483.261 29.1297 488.994 31.9962 492.757 37.7291C497.415 31.9962 503.909 29.1297 512.239 29.1297ZM619 29.0971H596.695V35.2778C592.127 29.9033 585.767 27.216 577.616 27.216C568.658 27.216 561.134 30.6199 555.042 37.4277C549.041 44.1459 546.04 52.5661 546.04 62.6883C546.04 72.8104 549.041 81.2754 555.042 88.0832C561.134 94.8015 568.658 98.1606 577.616 98.1606C585.767 98.1606 592.127 95.4733 596.695 90.0987V96.2795H619V29.0971ZM582.587 77.334C578.377 77.334 574.973 75.9904 572.375 73.3031C569.778 70.6158 568.479 67.0775 568.479 62.6883C568.479 58.299 569.778 54.7607 572.375 52.0734C574.973 49.3861 578.377 48.0425 582.587 48.0425C586.797 48.0425 590.201 49.3861 592.799 52.0734C595.397 54.7607 596.695 58.299 596.695 62.6883C596.695 67.0775 595.397 70.6158 592.799 73.3031C590.201 75.9904 586.797 77.334 582.587 77.334ZM666.259 98.2949C656.316 98.2949 648.075 96.1899 641.536 91.9798C634.997 87.7697 630.428 82.0816 627.831 74.9155L648.388 62.957C651.882 71.2876 658.063 75.4529 666.931 75.4529C674.276 75.4529 677.949 73.3479 677.949 69.1378C677.949 66.3609 675.844 64.1215 671.634 62.4195C669.842 61.7029 665.901 60.4936 659.809 58.7917C651.21 56.2835 644.402 52.7901 639.386 48.3112C634.37 43.7428 631.862 37.4277 631.862 29.3658C631.862 20.6769 634.952 13.6451 641.133 8.27055C647.403 2.89596 655.196 0.208664 664.512 0.208664C672.395 0.208664 679.382 2.04498 685.473 5.71762C691.564 9.39025 696.222 14.7201 699.447 21.707L679.292 33.5311C676.336 26.5441 671.454 23.0507 664.647 23.0507C661.78 23.0507 659.585 23.6329 658.063 24.7974C656.629 25.9619 655.913 27.4399 655.913 29.2314C655.913 31.2917 656.988 33.0384 659.138 34.4717C661.377 35.9049 665.677 37.562 672.037 39.4432C676.605 40.7868 680.278 42.0409 683.055 43.2054C685.831 44.3699 688.877 46.0718 692.191 48.3112C695.506 50.4611 697.969 53.2827 699.581 56.7762C701.194 60.1801 702 64.2111 702 68.8691C702 78.0954 698.73 85.3063 692.191 90.5018C685.652 95.6972 677.008 98.2949 666.259 98.2949ZM721.212 87.9488C728.02 94.7567 736.529 98.1606 746.741 98.1606C753.37 98.1606 759.371 96.593 764.746 93.4578C770.21 90.3226 774.42 86.0677 777.376 80.6932L758.296 69.6752C756.057 74.1541 752.16 76.3935 746.607 76.3935C742.844 76.3935 739.709 75.1394 737.201 72.6313C734.693 70.0335 733.439 66.7192 733.439 62.6883C733.439 58.6573 734.693 55.3878 737.201 52.8796C739.709 50.2819 742.844 48.983 746.607 48.983C751.981 48.983 755.878 51.1777 758.296 55.5669L777.376 44.549C774.42 39.264 770.21 35.0539 764.746 31.9187C759.371 28.7836 753.37 27.216 746.741 27.216C736.529 27.216 728.02 30.6199 721.212 37.4277C714.404 44.2355 711 52.6557 711 62.6883C711 72.7208 714.404 81.141 721.212 87.9488ZM809.037 43.5068C810.291 39.1175 812.799 35.7136 816.561 33.295C820.323 30.8765 824.534 29.6672 829.191 29.6672V54.3903C824.086 53.5841 819.428 54.5247 815.218 57.212C811.097 59.8993 809.037 64.2885 809.037 70.3797V98.1932H786.732V31.0108H809.037V43.5068ZM848.48 87.9488C855.467 94.7567 863.932 98.1606 873.875 98.1606C883.908 98.1606 892.373 94.7567 899.27 87.9488C906.257 81.0515 909.751 72.6312 909.751 62.6882C909.751 52.7453 906.257 44.3699 899.27 37.562C892.373 30.6647 883.908 27.216 873.875 27.216C863.932 27.216 855.467 30.6647 848.48 37.562C841.494 44.3699 838 52.7453 838 62.6882C838 72.6312 841.494 81.0515 848.48 87.9488ZM873.5 80.1934C883.165 80.1934 891 72.3583 891 62.6934C891 53.0284 883.165 45.1934 873.5 45.1934C863.835 45.1934 856 53.0284 856 62.6934C856 72.3583 863.835 80.1934 873.5 80.1934Z" fill="#1B2E59"/>
</svg>
